# xmcd CD database file
# Copyright (C) 1993-1998 Ti Kan
# 
# Track frame offsets:
#     182
#     9292
#     19172
#     29952
#     40712
#     52117
#     61892
#     75017
#     85282
#     96102
#     108027
#     118905
#     129407
#     137875
# 
# Disc length: 1978 seconds
# 
# Revision: 1
# Processed by: cddbd v1.4b41PL1 Copyright (c) Steve Scherf et al.
# Submitted via: DiscPlay 4.0.3
# 
DISCID=ae07b80e
DTITLE=Bob Wills and His Texas Playboys - TheTiffany Transcriptions Vol. 7 Kee
DTITLE=p Knockin'
DYEAR=1900
DGENRE=
TTITLE0=Keep Knockin' (But You Can't Come In)
TTITLE1=Honeysuckle Rose
TTITLE2=Worried Mind
TTITLE3=Okie Boogie
TTITLE4=C-Jam Blues
TTITLE5=I Can't Go On This Way
TTITLE6=Sweet Moments
TTITLE7=My Gal Sal
TTITLE8=I'm Gonna Boss From Now On
TTITLE9=Lonesome Hearted Blues
TTITLE10=Joe's Place
TTITLE11=Sugar Blues
TTITLE12=Too Long
TTITLE13=Tea For Two
EXTD=
EXTT0=
EXTT1=
EXTT2=
EXTT3=
EXTT4=
EXTT5=
EXTT6=
EXTT7=
EXTT8=
EXTT9=
EXTT10=
EXTT11=
EXTT12=
EXTT13=
PLAYORDER=
